<svg id="Layer_1" data-name="Layer 1" xmlns="http://www.w3.org/2000/svg" viewBox="0 0 464.85 304.3"><defs><style>.cls-1{fill:#231f20;}</style></defs><title>Logo4</title><path class="cls-1" d="M144.16,228.27a114.74,114.74,0,0,0,48.91-21.57c11.79-9,27.63-24.06,20.77-40.53-1-2.49-4-3.74-6.16-1.62-24.5,23.91-30.74,58.83-47.53,87.53-4.11,7-8.84,14-14.81,19.56-1.67,1.55-5.49,4.73-4.14.14a22.46,22.46,0,0,1,3.13-5.48c3-4.32,8.2-8.91,13.92-7.16,4.08,1.26,6.08,5.62,8.39,8.84a25.3,25.3,0,0,0,8,7.55c6.38,3.61,14.1,4,21.14,2.46,19.87-4.48,29.14-24.43,36-41.6,1.74-4.37-4.76-6.34-7.12-3-6.91,9.73-10.62,24.17-4.55,35.23,6.43,11.69,20.4,9.78,29.81,3.07,20.69-14.73,33.92-39,36.13-64.05.41-4.59-6.6-5.25-7.83-1.06C276,214.32,273.39,222,271,229.66s-5.61,16-5.62,24c0,12.51,11.28,20.56,23.09,20.51,13.88-.06,24.31-11.07,31.3-21.93a98.87,98.87,0,0,0,15-43.57c.47-4.69-7-5.51-8.11-1.1-3.25,12.44-6.58,25.16-6.39,38.11.15,9.53,1.91,21,9.77,27.4,8.43,6.86,18.64,1.83,26.81-2.84a89.45,89.45,0,0,0,22.7-18.32,70.15,70.15,0,0,0,14.69-25.48c2.11-6.87,5.64-21-1.18-26.37-8.39-6.55-17.49,9.41-20.57,15.27a61.39,61.39,0,0,0-7.08,29.45c.18,9.42,2.73,19.63,9.63,26.45,7.74,7.65,18.7,7.44,28.23,3.55A61.61,61.61,0,0,0,428,255.89c5.81-7.35,13.29-19,10.41-28.79-3-10.3-14.42-11.46-20.92-3.8-6.76,8-10.58,19.53-9.21,29.92,1.28,9.7,7.25,18.88,16.39,22.81,9,3.85,19,1.72,27.09-3.33,10.62-6.65,16.87-17,22.25-28,2.67-5.47,5.19-11,8.31-16.28,2.92-4.93,8.09-13.87,14.84-13.61,7.88.29,9.64,10.6,10,16.58.38,7,.28,14,.18,20.93-.23,15.46-1.32,30.9-2.83,46.28-.54,5.47,7.74,5.25,8.44,0a416.37,416.37,0,0,0,3.32-61.74c-.16-8.71-.55-18.07-6.65-24.91-5.12-5.73-12.86-7.59-19.84-4.23-7.43,3.57-12.43,11.42-16.31,18.37-4.33,7.75-7.64,16-12.13,23.7-7.63,13-28.14,29.6-40.83,12.41-5.44-7.37-5.13-17.37-1.43-25.43,1.3-2.83,4.54-10.07,8.24-9.74,6.36.57,1.38,11.45-.22,14.6A54.73,54.73,0,0,1,410.76,261c-6.6,4.83-16.53,10.55-25,7.57-7.61-2.7-11-11.66-12-19a50.91,50.91,0,0,1,3.47-25.27,52.17,52.17,0,0,1,6.45-11.44c1.07-1.44,2.82-4.33,4.47-5.17-.54.28.08-3.69-.07.69,0,1.21,0,2.42,0,3.63a50.4,50.4,0,0,1-6.39,22.43,72.42,72.42,0,0,1-17.16,20.45,82.39,82.39,0,0,1-11.32,7.93c-3.95,2.32-9.34,5.93-14.05,5.65-9.82-.57-10.83-16.73-10.83-23.67,0-11.92,3.08-23.55,6.16-35l-8.11-1.09a91.6,91.6,0,0,1-11.13,35.06c-5.38,9.52-13.65,21.16-25.46,22.61a16.8,16.8,0,0,1-13.32-4.27c-5-4.8-3.23-11.62-1.66-17.57,3.18-12.08,7.46-23.82,11-35.78l-7.83-1.06c-1.8,19.53-11,36.78-24.68,50.61-5.53,5.59-17.79,17.32-25.51,8.64-7.18-8.08-1.86-22.17,3.49-29.57l-7.12-3c-6.84,16.68-18.4,41.26-40.8,36.5-9.82-2.08-11.18-11.58-18.63-16.6-7.28-4.9-16.76-2.2-22.76,3.45-4.82,4.54-13.83,16.46-6.57,22.31,7.5,6,15.5-2.85,20.07-8.17,11.75-13.69,18.85-30.34,25.65-46.84,8.12-19.69,16.08-40.08,31.65-55.22l-6.16-1.62c6.22,15-12,28.77-22.67,36a117.34,117.34,0,0,1-41.69,17.62c-4.28.91-2.44,7.28,1.79,6.51Z" transform="translate(-97.1 -163.47)"/><path class="cls-1" d="M233.09,221.68c3.74,0,3.75-5.81,0-5.81s-3.75,5.81,0,5.81Z" transform="translate(-97.1 -163.47)"/><path class="cls-1" d="M260.31,231.4c14,.86,28.25-.63,42.21-1.65q10.31-.76,20.63-1.45c6.57-.44,14.24.14,20.49-2.05,2.71-.95,3.25-5.36,0-6.06-6.53-1.41-13.88.06-20.49.52-7.21.51-14.41,1-21.62,1.6-13.89,1.08-28.17,1.95-41.75,5.22-2.24.55-1.62,3.74.53,3.87Z" transform="translate(-97.1 -163.47)"/><path class="cls-1" d="M476.1,344.2c3.33-2.92,2.5-8.87,3-12.94.82-6.3,3.15-11.2,6.47-16.55s5.41-8.7,11.65-10.17c5.62-1.33,15.3-1.42,19.64,2.84,3.89,3.81,5.52,9.5,6.89,14.6a60.47,60.47,0,0,1,1.85,9.89c.29,3.09-.07,6.11.75,9.11.68,2.49,4.6,3.31,5.82.76,3.07-6.41.91-15.27-.92-21.82-1.73-6.22-4-12.67-8.54-17.43-6-6.3-17.45-7.09-25.65-5.59-7.27,1.32-11.65,4.55-15.65,10.67-3.66,5.58-7.31,11.3-8.64,17.93-1,5.13-3,14.46.74,18.7a1.83,1.83,0,0,0,2.55,0Z" transform="translate(-97.1 -163.47)"/><path class="cls-1" d="M472.38,344.56c3.55,2.44,8.42,1.84,12.57,1.79,4.59-.07,9.19-.21,13.79-.23,9.79,0,19.8.83,29.56.22,4.93-.3,4.7-6.91,0-7.5-10-1.24-20.53-.55-30.55-.28-4.92.14-9.87.23-14.77.62-3.89.31-7.87.39-10.91,3a1.52,1.52,0,0,0,.31,2.36Z" transform="translate(-97.1 -163.47)"/><path class="cls-1" d="M489.8,312.34c5.33.74,10.6,1.28,15.81,2.67s10,4.11,15.16,5.43c2.74.7,5.45-3.07,3-5.09-8.3-6.73-22.82-9.23-33.24-8.17-2.67.27-3.88,4.71-.7,5.16Z" transform="translate(-97.1 -163.47)"/><path class="cls-1" d="M476.4,321.7c4,2.52,9,3.32,13.45,4.46,4.13,1,8.26,2.06,12.39,3.1,8.07,2,14.19,5.29,21,10.08,2.29,1.63,5.45-1.59,3.88-3.88-4.55-6.63-12.73-9.65-20.21-11.66-4.45-1.19-9-2.11-13.5-3.07-5.1-1.09-10.8-3-16.05-2.43a1.84,1.84,0,0,0-.92,3.4Z" transform="translate(-97.1 -163.47)"/><path class="cls-1" d="M475.54,346.57c-4.78,16-20.16,25.92-23,42.8a40.83,40.83,0,0,0,16.65,40.55c14,9.8,34.54,9.11,49.88,2.86,15-6.11,27.11-19.34,28.38-36,1.46-19.14-15.51-32.33-18.38-50.38-.63-3.91-6.77-2.87-6.77.91,0,14,10.2,24.32,15,36.83,5.63,14.63-2,30.13-15,37.88s-32.57,10.37-46.18,3.13a33.12,33.12,0,0,1-16.25-37.9c4-14.73,20.22-24.19,21-40,.16-3.18-4.56-3.66-5.43-.73Z" transform="translate(-97.1 -163.47)"/><path class="cls-1" d="M148.58,221.06c-12.9.81-24.59,9.5-32.83,19A77.7,77.7,0,0,0,98,277.56c-4.76,27.61,9,52.37,33.18,65.66,61,33.54,124-19.27,181.39-34.84,17-4.61,36.75-6.57,52,4.2s15.08,30,16.65,46.66a3.28,3.28,0,0,0,6.56,0c1-13.48.43-27.75-6.29-39.88-6.43-11.61-18.5-19-31.31-21.59-15.08-3.06-30.56,0-45,4.44-15.28,4.73-29.91,11.33-44.43,18-29.46,13.49-60.61,28.16-93.86,26-25.76-1.67-53.54-16.77-61.3-42.85-4.88-16.4-.83-34.57,7.7-49,8.4-14.25,20.7-22.77,35.95-28.38,2.43-.9,2.31-5-.65-4.84Z" transform="translate(-97.1 -163.47)"/><path class="cls-1" d="M437.91,437.14a8,8,0,0,0,2.29-.13,14.42,14.42,0,0,0,2.26-.95,10.62,10.62,0,0,0,3.71-3.18c1.09-1.44-1-3.31-2.42-2.41-1.18.75-2.27,1.59-3.41,2.41-.54.39-1.1.74-1.64,1.12s-1,1-1.49,1.43a1,1,0,0,0,.7,1.71Z" transform="translate(-97.1 -163.47)"/><path class="cls-1" d="M495.68,455.64a28.76,28.76,0,0,0,.06,10.94c.35,1.95,3.12,1.31,3.25-.44a27.71,27.71,0,0,0-1-10.5,1.2,1.2,0,0,0-2.29,0Z" transform="translate(-97.1 -163.47)"/><path class="cls-1" d="M549.9,429.5c.75.9,1.28,1.89,2.12,2.74s1.62,1.62,2.45,2.4a57.47,57.47,0,0,0,5.13,4.09c1.48,1.1,3.15-1.25,1.93-2.5a55.72,55.72,0,0,0-5-4.71c-.71-.57-1.45-1.12-2.18-1.67-1.05-.8-2.14-1.22-3.23-1.92s-1.91.75-1.21,1.57Z" transform="translate(-97.1 -163.47)"/><path class="cls-1" d="M476.64,368.15c-8.82,2.4-11.84,15.79-7.73,23.12,3.87,6.91,13.66,9.3,20.48,5.46,7.39-4.16,9.89-14.13,6.76-21.73-3.46-8.39-14.27-12.66-21.53-5.94-1.42,1.31.05,3.93,1.91,3.29,2.37-.8,4.94-1.87,7.5-1.65,3.93.34,6.76,3.9,7.86,7.47,1.58,5.07-.25,11.53-5,14.25-4.51,2.57-11.27,1.1-13.85-3.56-3.65-6.56.7-13.46,5.18-18a1.62,1.62,0,0,0-1.56-2.69Z" transform="translate(-97.1 -163.47)"/><path class="cls-1" d="M511.17,368.62c-8.19-.59-10.31,11-9,17.05,2,8.9,10.82,14.28,19.43,10.26,8.36-3.9,10.91-14.93,6.63-22.76-3.48-6.36-14-10.39-19.69-4.36-1.32,1.39,0,4,1.94,3.35,4.38-1.43,9.64-1.66,12.58,2.55,3.26,4.67,2.74,12.15-2,15.62-12.1,8.79-20.42-13.84-9.41-18.22a1.78,1.78,0,0,0-.47-3.49Z" transform="translate(-97.1 -163.47)"/><path class="cls-1" d="M485.68,377.7a3.48,3.48,0,0,0-1.76,3,3.53,3.53,0,0,0,1.65,3.09,2.06,2.06,0,0,0,2.14,0,4.08,4.08,0,0,0-.94-7.22,2.2,2.2,0,0,0-2.46,1,7,7,0,0,0-1.14,4.31c.27,2,2.72,2.56,4.28,1.71a3.81,3.81,0,0,0,1.92-2.58,3,3,0,0,0-2.72-3.8,2.28,2.28,0,0,0-1.95,3.41c.05.08.52.61.51.63s-.43-.92-.35-.62,0,.07-.05-.34l.06-.4c0,.18-.19.54.08-.1-.05.12-.28.31,0,.07s.14-.19-.26.33l.59-.56c-.15.09-.12.08.08,0a1,1,0,0,1,.56-.11l.38.06c.35.18.42.2.22.08l1.1,1.93a4.86,4.86,0,0,1,0-.66c-.05.43.07-.23.08-.27s.21-.65.07-.3a4.56,4.56,0,0,1,.3-.58l-2.47,1-.2-.1c.14.09.08,0-.17-.15.24.24-.1-.1-.08-.14l.11.17c.07.15.05.08-.08-.2.06-.05,0,.57.05.11s-.08.09,0,.12c-.11,0,.21-.52,0-.1-.12.23.25-.39,0-.09l.18-.21c-.16.15-.12.13.12-.07h2.14c.1.06.44.58.28.26.12.29.14.33.08.11,0,.3.05.37.05.2s0-.09,0,.21c.05-.18.05-.18,0,0a.75.75,0,0,1-.21.32c-.25.16-.28.19-.09.07a2.1,2.1,0,0,0,.75-2.84,2.14,2.14,0,0,0-2.85-.75Z" transform="translate(-97.1 -163.47)"/><path class="cls-1" d="M510.39,379.36a2.54,2.54,0,0,0,.39,3.05,3,3,0,0,0,2.74.78,2.9,2.9,0,0,0,2.08-2.05,5,5,0,0,0-.12-2.57,2.14,2.14,0,0,0-2-1.55,3.13,3.13,0,0,0-2.6,1.51,3.87,3.87,0,0,0,.59,4.56,2.87,2.87,0,0,0,3.3.56,3.62,3.62,0,0,0,1.32-3.38,3.52,3.52,0,0,0-2.29-3.29,3,3,0,0,0-3.27,1.46,2.5,2.5,0,0,0,1.33,3.69,1.86,1.86,0,0,0,2.25-1.28c-.22.47-.2.41,0-.16l0-.1c.06-.2,0-.14-.1.2s-.27.32-.16.2c.3-.3-.15.06-.3.12a1,1,0,0,1-.51.09q-.57-.12-.24,0l-1.29-1a1.51,1.51,0,0,1,.18.26c.11.21.11.18,0-.09l0,.15c.05.24.05.21,0-.1v.47c.05-.3,0-.34,0-.1s-.06.2,0-.07l1.84-1.06h-.18a1.27,1.27,0,0,1,.74.2c-.27-.16.43.44.11.08.24.33.3.4.19.22s-.06-.1.11.26a.84.84,0,0,1,0-.17c-.05-.22,0-.12,0,.29a1.21,1.21,0,0,1,0-.19c0-.22,0-.12-.05.29a.85.85,0,0,1,0-.17c.06-.21,0-.12-.12.26.21-.43-.31.32-.09.1a1.29,1.29,0,0,1-.64.37c.21-.05.11,0-.29,0l-2-1.55.09.31c0,.24.05.22,0-.06.07.15-.1.6,0,.07a.74.74,0,0,1,.53-.56.89.89,0,0,1,.78-.39,1.59,1.59,0,0,1,1.16,2.4,2.1,2.1,0,0,0-3.62-2.11Z" transform="translate(-97.1 -163.47)"/><path class="cls-1" d="M494.28,398.81a9.9,9.9,0,0,0,.06,7.88,6,6,0,0,0,6.24,3.39,5.71,5.71,0,0,0,4.25-4.26c.61-2.08.84-4.88-1.06-6.31a1.62,1.62,0,0,0-2,.25c-.89,1-.91,2.2-1,3.43,0,.71-.09,2.22-.88,2.58-1,.45-1.79-.95-2-1.67-.51-1.58-.07-3.25-.3-4.86a1.82,1.82,0,0,0-3.29-.43Z" transform="translate(-97.1 -163.47)"/><path class="cls-1" d="M315.86,315.48c-1.45-5.12-9.39-1.43-9.75,2.75-.22,2.59,1.57,3.82,3.93,3.93,1.64.08,3.67.17,4.16,2.12.32,1.27-.23,1.9-1.38,2.23a5.47,5.47,0,0,1-2.8-.28,1.57,1.57,0,0,0-2.82.37c-1.18,3.09,3.69,3.89,5.72,3.74a5.34,5.34,0,0,0,5-5.27,6.27,6.27,0,0,0-4.59-6,8.18,8.18,0,0,0-1.89-.35c-1-.06-2.6.71-1.91-.95,1-2.33,3.83-1.13,5.57-1.28a.78.78,0,0,0,.75-1Z" transform="translate(-97.1 -163.47)"/><path class="cls-1" d="M324.9,312.74c-1.13,1.65-.74,3.89-.71,5.81,0,2.18-.19,4.52.63,6.57a1.09,1.09,0,0,0,2.08,0c.73-2.08.43-4.39.38-6.57,0-1.89.24-4.22-.93-5.81a.85.85,0,0,0-1.45,0Z" transform="translate(-97.1 -163.47)"/><path class="cls-1" d="M337.91,312.1l-.45.2a1.5,1.5,0,0,0-.74,1.28c-.3,3.54-1.06,7.8-.23,11.28a1.34,1.34,0,0,0,2.56,0c1.1-3.39.65-7.74.63-11.28a1.47,1.47,0,0,0-.73-1.28c-.37-.19-.64-.37-1-.2Z" transform="translate(-97.1 -163.47)"/><path class="cls-1" d="M334.18,314.33a24.35,24.35,0,0,1,5.12.1,6.24,6.24,0,0,0,4.07-.39c1.29-.68.54-2.42-.69-2.54-3-.28-5.95-1-8.9-.13-1.59.46-1.36,3.08.4,3Z" transform="translate(-97.1 -163.47)"/><path class="cls-1" d="M349.28,316.22a35.14,35.14,0,0,0-.51,6.72c0,1.88-.31,3.79.89,5.32a.84.84,0,0,0,1.19,0c1.22-1.52.93-3.44.92-5.32a34.33,34.33,0,0,0-.48-6.72,1.05,1.05,0,0,0-2,0Z" transform="translate(-97.1 -163.47)"/><path class="cls-1" d="M348.4,327.53c.77,1.46,2.32,1.77,3.87,1.76,2.05,0,4.22.63,6.22.29a1.3,1.3,0,0,0,.57-2.15,6.81,6.81,0,0,0-4.33-1.35c-1.43-.1-3.61.65-4.92,0a1,1,0,0,0-1.41,1.41Z" transform="translate(-97.1 -163.47)"/><path class="cls-1" d="M350.79,321.46a4.35,4.35,0,0,0,2.46.57,5.5,5.5,0,0,0,2.66-.47c.95-.45.57-1.78-.27-2.07a5.65,5.65,0,0,0-2.74-.08,4,4,0,0,0-2.26.87.76.76,0,0,0,.15,1.18Z" transform="translate(-97.1 -163.47)"/><path class="cls-1" d="M350.3,316.74c.36-.2,1.32,0,1.7.06s1,0,1.44,0a11.32,11.32,0,0,0,3.22-.49c1-.34,1.3-2.2,0-2.38a13.4,13.4,0,0,0-4.76.32c-1,.23-2.4.5-2.58,1.72a.68.68,0,0,0,1,.76Z" transform="translate(-97.1 -163.47)"/></svg>